<?xml version="1.0" encoding="utf-8"?>
<!-- Generator: Adobe Illustrator 18.1.1, SVG Export Plug-In . SVG Version: 6.00 Build 0)  -->
<svg version="1.1" id="Capa_1" xmlns="http://www.w3.org/2000/svg" xmlns:xlink="http://www.w3.org/1999/xlink" x="0px" y="0px"
	 viewBox="-109 191 100 100" enable-background="new -109 191 100 100" xml:space="preserve">
<g>
	<path fill="#FFFFFF" d="M-108.9,239.2c-0.6-16.9,13.7-32.5,30.1-32.7c8.4-0.7,16.5,2.6,22.8,8.1c-2.6,2.9-5.2,5.8-8.1,8.6
		c-5.6-3.5-12.3-6.1-18.8-3.8c-10.5,3.1-16.9,15.8-13,26.4c3.2,11,16.3,17.1,26.5,12.5c5.3-2,8.8-7,10.3-12.4
		c-6.1-0.1-12.1,0-18.2-0.2c0-3.7,0-7.4,0-11.1c10.1,0,20.3,0,30.4,0c0.6,9.1-0.7,18.9-6.4,26.2c-7.9,10.4-22.4,13.5-34.3,9.4
		C-100,265.9-109.1,252.8-108.9,239.2z"/>
	<path fill="#FFFFFF" d="M-27,225.1c3,0,6,0,9,0c0,3.1,0,6.2,0.1,9.3c3,0,6.1,0,9.1,0.1c0,3.1,0,6.2,0,9.3c-3,0-6.1,0-9.1,0
		c0,3.1,0,6.2-0.1,9.4c-3,0-6,0-9,0c0-3.1,0-6.2-0.1-9.3c-3,0-6.1,0-9.1-0.1c0-3.1,0-6.2,0-9.3c3,0,6,0,9.1-0.1
		C-27.1,231.4-27.1,228.2-27,225.1z"/>
</g>
</svg>
